<svg width="17" height="17" viewBox="0 0 17 17" fill="none" xmlns="http://www.w3.org/2000/svg">
<path fill-rule="evenodd" clip-rule="evenodd" d="M16.8086 15.8845L12.7208 11.7975C15.1821 8.84248 14.8839 4.4742 12.0438 1.88117C9.20364 -0.711865 4.82632 -0.612383 2.10694 2.107C-0.612447 4.82638 -0.711929 9.2037 1.8811 12.0438C4.47414 14.8839 8.84242 15.1822 11.7974 12.7208L15.8844 16.8087C16.1396 17.0639 16.5534 17.0639 16.8086 16.8087C17.0638 16.5535 17.0638 16.1397 16.8086 15.8845ZM1.32433 7.20264C1.32433 3.95617 3.95611 1.32439 7.20257 1.32439C10.449 1.32439 13.0808 3.95617 13.0808 7.20264C13.0808 10.4491 10.449 13.0809 7.20257 13.0809C3.9576 13.0773 1.32793 10.4476 1.32433 7.20264Z" fill="#4F7396"/>
</svg>
